<?xml version="1.0" encoding="UTF-8"?>
<svg id="a" data-name="レイヤー_1" xmlns="http://www.w3.org/2000/svg" viewBox="0 0 277.47 328.08">
  <defs>
    <style>
      .b {
        fill: #148ec8;
      }

      .b, .c {
        fill-rule: evenodd;
      }

      .c {
        fill: #fff;
        stroke: #101838;
        stroke-miterlimit: 10;
      }
    </style>
  </defs>
  <path class="c" d="M61.07,45.33L122.38.81l75.77,233.19L61.07,45.33ZM93.89,103.45l137.08,188.66h-75.77l-61.31-188.66ZM84.72,110.99l-37.86,116.61,23.4,72.05,14.46-188.66ZM69.66,122.86l-61.29,44.54,23.42,72.05,37.87-116.59ZM156.59,327.58l-61.31-188.65-14.46,188.65h75.76ZM144.63,31.57l61.31,44.52,14.46,188.66L144.63,31.57ZM276.88,133.82l-61.29-44.55,14.47,188.64,46.82-144.09Z"/>
  <path class="b" d="M51.63,45.98L111.72,2.34l74.26,228.52L51.63,45.98ZM83.81,102.94l134.34,184.89h-74.26l-60.08-184.89ZM74.81,110.32l-37.11,114.27,22.93,70.61,14.17-184.88ZM60.06,121.95L0,165.61l22.95,70.61,37.11-114.26ZM145.25,322.58l-60.08-184.88-14.17,184.88h74.25ZM133.53,32.49l60.08,43.63,14.17,184.88L133.53,32.49ZM263.14,132.7l-60.06-43.66,14.18,184.86,45.88-141.21Z"/>
</svg>