<?xml version="1.0" encoding="UTF-8"?>
<svg id="a" data-name="レイヤー_1" xmlns="http://www.w3.org/2000/svg" xmlns:xlink="http://www.w3.org/1999/xlink" viewBox="0 0 216.08 45.36">
  <defs>
    <style>
      .c {
        fill: #fff;
      }

      .d {
        fill: url(#b);
      }

      .e {
        fill: #148ec8;
      }
    </style>
    <linearGradient id="b" data-name="名称未設定グラデーション 51" x1="0" y1="22.68" x2="45.36" y2="22.68" gradientUnits="userSpaceOnUse">
      <stop offset="0" stop-color="#fff"/>
      <stop offset=".22" stop-color="#c8e4f2"/>
      <stop offset=".76" stop-color="#47a6d4"/>
      <stop offset="1" stop-color="#148ec8"/>
    </linearGradient>
  </defs>
  <path class="d" d="M18.46,30.57c.97-.86,2.26-1.24,3.55-1.11.22.02.45.03.68.03,2.2,0,4.16-1.05,5.4-2.66.73-.95,1.83-1.53,3.02-1.67l3-.35c1.3-.15,2.64.24,3.59,1.15.82.79,1.93,1.27,3.16,1.27,2.38-.01,4.38-1.91,4.51-4.29.14-2.62-1.94-4.79-4.53-4.79-1.21,0-2.31.47-3.12,1.24-.98.93-2.34,1.32-3.68,1.17l-1.8-.21c-1.27-.15-1.86-1.67-1-2.63l6.32-7.11c.84-.94,2.03-1.53,3.28-1.53.25,0,.51-.02.77-.06,2-.34,3.57-2.03,3.75-4.05C45.58,2.26,43.46,0,40.82,0,39.54,0,38.39.53,37.56,1.38c-.84.87-2.01,1.34-3.21,1.34h-5.19c-1.21,0-2.37-.47-3.21-1.34C25.12.53,23.96,0,22.68,0s-2.43.53-3.26,1.38c-.84.87-2.01,1.34-3.21,1.34h-5.2c-1.22,0-2.38-.49-3.23-1.36C6.95.52,5.79,0,4.52,0,2.14.01.13,1.91,0,4.29c-.14,2.62,1.94,4.79,4.53,4.79,1.28,0,2.43-.53,3.26-1.38.84-.87,2.01-1.34,3.21-1.34h5.2c1.21,0,2.37.47,3.21,1.34.82.85,1.98,1.38,3.26,1.38s2.43-.53,3.26-1.38c.84-.87,2.01-1.34,3.21-1.34h3.09c1.46,0,2.15,1.81,1.05,2.77l-6.39,5.67c-.97.86-2.26,1.24-3.55,1.11-.22-.02-.45-.03-.68-.03-2.2,0-4.15,1.04-5.4,2.66-.73.95-1.83,1.53-3.02,1.67l-3,.35c-1.3.15-2.64-.24-3.58-1.15-.82-.79-1.93-1.27-3.16-1.27-2.38.01-4.38,1.91-4.51,4.29-.14,2.62,1.94,4.79,4.53,4.79,1.21,0,2.31-.47,3.12-1.24.98-.93,2.34-1.32,3.68-1.17l1.81.21c1.27.15,1.86,1.67,1,2.63l-6.32,7.11c-.84.94-2.03,1.53-3.28,1.53-.25,0-.51.02-.77.06-2.01.34-3.57,2.02-3.76,4.04-.25,2.7,1.87,4.96,4.52,4.96,1.28,0,2.43-.53,3.26-1.38.84-.87,2.01-1.34,3.21-1.34h5.2c1.21,0,2.37.47,3.21,1.34.82.85,1.98,1.38,3.26,1.38s2.43-.53,3.26-1.38c.84-.87,2.01-1.34,3.21-1.34h5.19c1.22,0,2.38.49,3.24,1.36.83.85,1.98,1.37,3.26,1.36,2.38-.01,4.38-1.91,4.51-4.29.14-2.62-1.94-4.79-4.53-4.79-1.28,0-2.43.53-3.26,1.38-.84.87-2.01,1.34-3.21,1.34h-5.19c-1.21,0-2.37-.47-3.21-1.34-.82-.85-1.98-1.38-3.26-1.38s-2.43.53-3.26,1.38c-.84.87-2.01,1.34-3.21,1.34h-3.09c-1.46,0-2.15-1.81-1.05-2.77l6.38-5.67h0Z"/>
  <g>
    <path class="c" d="M207.15,32.71l-6.26-15.75h2.78l4.83,12.3,4.83-12.3h2.76l-9.86,24.57h-2.55l3.46-8.82h.03,0Z"/>
    <path class="c" d="M195.16,31.74c-1.38,1.78-3.17,2.69-5.39,2.69-4.23,0-7.41-3.49-7.41-8.88s3.17-8.91,7.41-8.91c2.21,0,4.01.91,5.39,2.72v-9.02h2.52v23.62h-2.52v-2.23h0s0,0,0,0ZM189.99,18.92c-4.15,0-5.38,3.66-5.38,6.56s1.24,6.56,5.38,6.56c2.1,0,5.3-1.32,5.3-6.56s-3.19-6.56-5.3-6.56Z"/>
    <path class="c" d="M178.15,16.96v17.01h-2.52v-2.25c-1.8,2.69-4.83,2.72-5.39,2.72-2.68,0-4.25-1.42-4.92-2.72-.64-1.3-.72-2.49-.72-5.17v-9.59h2.52v9.55c0,2.68,0,5.49,3.72,5.49.82,0,4.78-.2,4.78-5.49v-9.55h2.53,0,0Z"/>
    <path class="c" d="M152.95,12.23h2.83v4.73h5.04v2.52h-5.35v9.67c0,1.58,0,2.99,2.68,2.99.38,0,1.06-.03,2.36-.2v2.3c-.61.09-1.51.2-2.71.2-4.74,0-4.85-2.85-4.85-5.41v-9.55h-2.2v-2.52h2.2v-4.83.1h0Z"/>
    <path class="c" d="M147.28,14.72c-1.32-.95-2.68-1.44-4.29-1.44-2.53,0-4.4,1.47-4.4,3.82s1.9,3.16,4.23,3.94c2.99.98,6.42,2.22,6.42,6.65,0,3.69-2.82,6.7-7.94,6.7-2.36,0-4.37-.55-6.33-1.81l.81-2.45c1.64,1.18,3.36,1.79,5.41,1.79,2.62,0,5.33-1.24,5.33-4.06,0-2.25-1.7-3.39-3.31-3.94-4.52-1.58-7.31-2.53-7.31-6.7,0-3.89,3.02-6.42,7.02-6.42,1.84,0,3.46.46,5.06,1.35l-.69,2.56h0s0,0,0,0Z"/>
  </g>
  <g>
    <path class="e" d="M123.9,34.28l-13.16-14.35v14.04h-4.72V11.29h2.32l12.8,13.66v-13.66h4.72v22.99h-1.96Z"/>
    <path class="e" d="M100.66,20.42v3.47h-10.39v6.3h11.65v3.78h-16.38V11.29h16.06v3.47h-11.34v5.67h10.39Z"/>
    <path class="e" d="M63.49,33.97v-1.32l11.18-17.9h-11.18v-3.47h17.64v1.31l-11.32,17.91h11.95v3.47h-18.27Z"/>
  </g>
</svg>